<?xml version="1.0" standalone="no"?>
<!DOCTYPE svg PUBLIC "-//W3C//DTD SVG 20010904//EN"
 "http://www.w3.org/TR/2001/REC-SVG-20010904/DTD/svg10.dtd">
<svg version="1.0" xmlns="http://www.w3.org/2000/svg"
 width="700.000000pt" height="700.000000pt" viewBox="0 0 700.000000 700.000000"
 preserveAspectRatio="xMidYMid meet">
<metadata>
Created by potrace 1.14, written by Peter Selinger 2001-2017
</metadata>
<g transform="translate(0.000000,700.000000) scale(0.100000,-0.100000)"
fill="#000000" stroke="none">
<path d="M3309 6706 c-2 -2 -46 -7 -96 -10 -51 -4 -103 -9 -115 -11 -13 -2
-70 -11 -128 -20 -215 -33 -510 -118 -718 -206 -53 -23 -163 -75 -243 -115
-80 -41 -149 -74 -153 -74 -8 0 -273 -102 -321 -124 -261 -118 -625 -319 -645
-356 -18 -33 -11 -58 45 -171 l56 -110 -75 -102 c-330 -455 -531 -958 -600
-1502 -28 -213 -28 -624 -2 -785 3 -14 7 -47 11 -75 10 -82 33 -203 61 -312
l26 -103 -27 -32 c-15 -18 -46 -53 -69 -78 -23 -25 -73 -81 -111 -125 -38 -44
-71 -82 -75 -85 -3 -3 -33 -40 -68 -84 l-62 -79 0 -139 c0 -140 2 -151 43
-203 108 -142 135 -173 222 -259 153 -150 312 -255 545 -359 82 -37 273 -90
365 -103 28 -3 52 -8 55 -9 3 -2 48 -6 100 -10 93 -7 115 -14 155 -52 88 -83
424 -297 600 -383 223 -107 550 -221 740 -256 17 -3 66 -12 110 -20 92 -17
293 -40 380 -44 163 -8 466 0 545 14 14 3 48 7 75 10 28 4 61 8 75 11 14 3 36
7 50 9 290 52 593 152 849 280 83 41 112 58 211 114 88 51 317 207 340 233 3
3 14 12 26 20 42 28 152 126 264 236 63 61 157 144 209 184 99 76 220 192 286
274 22 28 43 52 46 55 13 10 158 228 201 300 135 229 285 571 387 880 36 108
78 248 85 280 3 14 12 52 21 85 12 49 15 149 15 568 l0 508 -38 102 c-134 353
-400 645 -829 911 -50 30 -99 68 -108 83 -10 16 -29 39 -41 53 -12 14 -41 48
-64 75 -74 89 -272 285 -373 368 -346 286 -738 496 -1152 617 -60 18 -117 34
-125 35 -109 25 -222 47 -254 51 -23 3 -50 7 -62 9 -11 2 -42 7 -70 10 -27 3
-65 8 -84 10 -42 6 -486 16 -491 11z"/>
</g>
</svg>
